<?xml version="1.0" encoding="utf-8"?>
<!-- Generator: Adobe Illustrator 25.2.3, SVG Export Plug-In . SVG Version: 6.00 Build 0)  -->
<svg version="1.1" id="Слой_1" xmlns="http://www.w3.org/2000/svg" xmlns:xlink="http://www.w3.org/1999/xlink" x="0px" y="0px"
	 viewBox="0 0 150.3 172.3" style="enable-background:new 0 0 150.3 172.3;" xml:space="preserve">
<style type="text/css">
	.st0{fill-rule:evenodd;clip-rule:evenodd;fill:#FFFFFF;}
</style>
<path class="st0" d="M55.4,59.6c5.6,0,10.2,4.5,10.2,10.2S61,79.9,55.4,79.9s-10.2-4.5-10.2-10.2v0C45.2,64.2,49.8,59.6,55.4,59.6
	C55.4,59.6,55.4,59.6,55.4,59.6z M108.6,125.8c3.1-2.9,5.2-6.7,6-10.9c0.6-2.7,0.3-5.5-0.7-8.1h-13.4c0.9,3.9,0.6,9.1-4,10.9
	c-11,4.4-28-1.9-41.2-16c-15.4-16.5-19.6-37.6-9.5-47c11.3-10.6,34.2-2.2,42.5,3.8c-11.7-9.3-33.8-15.6-46.1-4.1
	c-10.5,9.8-8.1,29.9,4.7,48v21.8c0,3,2.4,5.4,5.4,5.4h11.8v-9.6C80.5,132.1,98.8,135,108.6,125.8L108.6,125.8z M69.5,108.1V63.2
	h11.8c3,0,5.4,2.4,5.4,5.4v14.9h14.1c3.8,0,5.8,1.4,7.3,4.8l3.9,8.8H86.7v17.5c-6.1-0.6-12-2.6-17.2-5.8
	C69.5,108.8,69.5,108.1,69.5,108.1z M46.8,83.5H64v21.6c-5.8-4.4-10.8-9.6-14.9-15.6C47.3,86.9,46.8,86.3,46.8,83.5z"/>
<path class="st0" d="M96.5,71.5C84.7,56.2,62.1,49.1,45.8,58.4c15.8-14.6,42.7-1.8,51.3,8.3c1.6,1.6,3.1,3.5,4.3,5.4l2.2-5.1h4
	l-4,9.4h-4v-0.1C98.7,74.7,97.7,73,96.5,71.5z"/>
<path class="st0" d="M139.6,97.6c0,35.2-28.6,63.7-63.7,63.7h-1.4c-35.2,0-63.7-28.5-63.7-63.7V24.2h128.9V97.6z M141.9,8.7h-12.7
	l-8.4,2.3v3H93.3v-3.2l-8.4-3.3H78l-1.4-0.8c0.1-0.1,0.1-0.3,0.1-0.5c0-0.6-0.4-1.1-0.9-1.3V0h-1.1v5c-0.5,0.2-0.9,0.7-0.9,1.3
	c0,0.2,0,0.3,0.1,0.4l-1.4,0.8h-7.2l-8,3.4V14H29.5v-3l-8.4-2.3H8.4L0,11v86.6c0,41.1,33.4,74.4,74.5,74.5h1.4
	c41.1,0,74.4-33.4,74.5-74.5v-82l0,0V11L141.9,8.7z"/>
</svg>
